<svg width="17" height="17" viewBox="0 0 17 17" fill="none" xmlns="http://www.w3.org/2000/svg">
<path d="M6.93881 14.3979C6.91709 14.3401 6.90961 14.2909 6.91697 14.2512C6.9243 14.2117 6.89905 14.179 6.84114 14.1537C6.78323 14.1285 6.75433 14.1085 6.75433 14.0942C6.75433 14.0798 6.71283 14.0689 6.62962 14.0618C6.54646 14.0545 6.50496 14.0508 6.50496 14.0508H6.36407H6.24483H3.12238C2.64535 14.0508 2.23694 13.8811 1.89718 13.5412C1.55751 13.2015 1.38769 12.7932 1.38769 12.3162V4.68351C1.38769 4.20648 1.55747 3.79822 1.89718 3.4585C2.23694 3.11875 2.64535 2.94881 3.12238 2.94881H6.59173C6.68571 2.94881 6.75961 2.9255 6.81395 2.87841C6.86806 2.83144 6.90414 2.76092 6.92229 2.66697C6.94037 2.57302 6.95127 2.48819 6.95491 2.41228C6.95848 2.33644 6.95673 2.2406 6.94944 2.12497C6.94227 2.00937 6.93866 1.93711 6.93866 1.90806C6.93866 1.81411 6.90429 1.73296 6.83567 1.66415C6.76698 1.59565 6.68571 1.56128 6.59176 1.56128H3.12238C2.26234 1.56128 1.52686 1.86667 0.916048 2.4774C0.305387 3.08814 0 3.82351 0 4.68362V12.3162C0 13.1762 0.305387 13.9118 0.916048 14.5223C1.52686 15.1333 2.26234 15.4387 3.12238 15.4387H6.59188C6.68586 15.4387 6.7598 15.4151 6.8141 15.3683C6.86822 15.3213 6.90429 15.2508 6.92244 15.1568C6.94052 15.0629 6.95142 14.9777 6.95506 14.9021C6.95863 14.8262 6.95689 14.7305 6.94959 14.6149C6.94234 14.4991 6.93881 14.4269 6.93881 14.3979Z" fill="white"/>
<path d="M16.7939 8.01214L10.896 2.11405C10.7587 1.97689 10.596 1.90808 10.4081 1.90808C10.2202 1.90808 10.0575 1.97689 9.92011 2.11405C9.78275 2.2514 9.71413 2.4142 9.71413 2.60202V5.72447H4.85702C4.66898 5.72447 4.50641 5.79328 4.36906 5.93044C4.2317 6.0678 4.16309 6.23048 4.16309 6.41841V10.5817C4.16309 10.7696 4.2317 10.9323 4.36906 11.0696C4.50656 11.2067 4.66909 11.2757 4.85702 11.2757H9.71417V14.3981C9.71417 14.5859 9.78279 14.7487 9.92014 14.8859C10.0575 15.0233 10.2202 15.0921 10.4081 15.0921C10.596 15.0921 10.7587 15.0233 10.896 14.8859L16.7939 8.98812C16.9312 8.85065 16.9999 8.6882 16.9999 8.50023C16.9999 8.31233 16.9312 8.1495 16.7939 8.01214Z" fill="white"/>
</svg>
