<svg width="11" height="12" viewBox="0 0 11 12" fill="none" xmlns="http://www.w3.org/2000/svg">
<path d="M0.859448 1.04999C1.03526 0.862517 1.27367 0.757202 1.52226 0.757202C1.77085 0.757202 2.00927 0.862517 2.18507 1.04999L5.50007 4.58599L8.81507 1.04999C8.99189 0.86783 9.2287 0.767036 9.47451 0.769315C9.72032 0.771593 9.95546 0.876762 10.1293 1.06217C10.3031 1.24758 10.4017 1.49839 10.4038 1.76059C10.406 2.02278 10.3115 2.27539 10.1407 2.46399L6.8257 5.99999L10.1407 9.53599C10.3115 9.72459 10.406 9.97719 10.4038 10.2394C10.4017 10.5016 10.3031 10.7524 10.1293 10.9378C9.95546 11.1232 9.72032 11.2284 9.47451 11.2307C9.2287 11.2329 8.99189 11.1321 8.81507 10.95L5.50007 7.41399L2.18507 10.95C2.00826 11.1321 1.77144 11.2329 1.52563 11.2307C1.27983 11.2284 1.04469 11.1232 0.870868 10.9378C0.697048 10.7524 0.598452 10.5016 0.596316 10.2394C0.59418 9.97719 0.688675 9.72459 0.859448 9.53599L4.17445 5.99999L0.859448 2.46399C0.683694 2.27646 0.584961 2.02215 0.584961 1.75699C0.584961 1.49182 0.683694 1.23752 0.859448 1.04999Z" fill="white" stroke="white" stroke-width="0.0625"/>
</svg>

