<svg width="17" height="16" viewBox="0 0 17 16" fill="none" xmlns="http://www.w3.org/2000/svg">
<path d="M11.5355 0H5.4637C5.34421 0.000829648 5.22636 0.0124422 5.10851 0.0364975C4.99148 0.0597229 4.87772 0.0953912 4.76723 0.141842C4.65675 0.188294 4.55199 0.244699 4.45215 0.311888C4.35312 0.379076 4.26146 0.456219 4.17634 0.541656C4.09205 0.627093 4.01675 0.720825 3.95046 0.821193C3.88335 0.922391 3.8277 1.02857 3.78187 1.14055C3.73604 1.25253 3.70085 1.36783 3.67793 1.48644C3.6542 1.60506 3.64274 1.72534 3.64274 1.84644V14.1536C3.64274 14.2747 3.6542 14.3949 3.67793 14.5136C3.70085 14.6322 3.73604 14.7483 3.78187 14.8595C3.8277 14.9714 3.88335 15.0784 3.95046 15.1788C4.01675 15.28 4.09205 15.3729 4.17634 15.4583C4.26146 15.5438 4.35312 15.6209 4.45215 15.6881C4.55199 15.7553 4.65675 15.8125 4.76723 15.859C4.87772 15.9054 4.99148 15.9403 5.10851 15.9643C5.22636 15.9876 5.34421 16 5.4637 16H11.5355C11.655 16 11.7736 15.9876 11.8907 15.9643C12.0077 15.9403 12.1215 15.9054 12.2319 15.859C12.3424 15.8125 12.4472 15.7553 12.547 15.6881C12.6461 15.6209 12.7385 15.5438 12.8228 15.4583C12.9071 15.3729 12.9824 15.28 13.0495 15.1788C13.1158 15.0784 13.1715 14.9714 13.2173 14.8595C13.2631 14.7483 13.2983 14.6322 13.3212 14.5136C13.345 14.3949 13.3564 14.2747 13.3564 14.1536V1.84644C13.3564 1.72534 13.345 1.60506 13.3212 1.48644C13.2983 1.36783 13.2631 1.25253 13.2173 1.14055C13.1715 1.02857 13.1158 0.922391 13.0495 0.821193C12.9824 0.720825 12.9071 0.627093 12.8228 0.541656C12.7385 0.456219 12.6461 0.379076 12.547 0.311888C12.4472 0.244699 12.3424 0.188294 12.2319 0.141842C12.1215 0.0953912 12.0077 0.0597229 11.8907 0.0364975C11.7736 0.0124422 11.655 0.000829648 11.5355 0ZM12.1427 14.1536C12.1427 14.2357 12.1272 14.3137 12.0961 14.3891C12.065 14.4646 12.0216 14.531 11.9643 14.589C11.9079 14.6463 11.8416 14.6911 11.7679 14.7218C11.6934 14.7533 11.6157 14.769 11.5355 14.769H5.4637C5.3835 14.769 5.30575 14.7533 5.23209 14.7218C5.15762 14.6911 5.09132 14.6463 5.03485 14.589C4.97757 14.531 4.93419 14.4646 4.90309 14.3891C4.87199 14.3137 4.85726 14.2357 4.85644 14.1536V1.84644C4.85726 1.76515 4.87199 1.68635 4.90309 1.61087C4.93419 1.53538 4.97757 1.46902 5.03485 1.41179C5.09132 1.35372 5.15762 1.30976 5.23209 1.27824C5.30575 1.24672 5.3835 1.23096 5.4637 1.23096H11.5355C11.6157 1.23096 11.6934 1.24672 11.7679 1.27824C11.8416 1.30976 11.9079 1.35372 11.9643 1.41179C12.0216 1.46902 12.065 1.53538 12.0961 1.61087C12.1272 1.68635 12.1427 1.76515 12.1427 1.84644V14.1536ZM15.1782 3.69288V12.3079C15.1782 12.3892 15.1627 12.468 15.1324 12.5427C15.1013 12.6182 15.0571 12.6854 15.0006 12.7426C14.9433 12.8007 14.8779 12.8446 14.8034 12.8761C14.7289 12.9077 14.652 12.9226 14.571 12.9226C14.4908 12.9226 14.413 12.9077 14.3385 12.8761C14.2641 12.8446 14.1986 12.8007 14.1421 12.7426C14.0848 12.6854 14.0406 12.6182 14.0104 12.5427C13.9793 12.468 13.9637 12.3892 13.9637 12.3079V3.69288C13.9637 3.61076 13.9793 3.53279 14.0104 3.45731C14.0406 3.38182 14.0848 3.31546 14.1421 3.2574C14.1986 3.19934 14.2641 3.15537 14.3385 3.12385C14.413 3.09316 14.4908 3.0774 14.571 3.0774C14.652 3.0774 14.7289 3.09316 14.8034 3.12385C14.8779 3.15537 14.9433 3.19934 15.0006 3.2574C15.0571 3.31546 15.1013 3.38182 15.1324 3.45731C15.1627 3.53279 15.1782 3.61076 15.1782 3.69288ZM17 4.92301V11.077C17 11.1583 16.9844 11.2371 16.9534 11.3126C16.9223 11.388 16.8789 11.4544 16.8216 11.5116C16.7651 11.5697 16.6988 11.6145 16.6252 11.6452C16.5507 11.6767 16.4729 11.6925 16.3927 11.6925C16.3117 11.6925 16.2348 11.6767 16.1603 11.6452C16.0858 11.6145 16.0204 11.5697 15.9631 11.5116C15.9066 11.4544 15.8624 11.388 15.8313 11.3126C15.801 11.2371 15.7855 11.1583 15.7855 11.077V4.92301C15.7855 4.84172 15.801 4.76292 15.8313 4.68744C15.8624 4.61278 15.9066 4.5456 15.9631 4.48836C16.0204 4.4303 16.0858 4.38633 16.1603 4.35481C16.2348 4.32329 16.3117 4.30753 16.3927 4.30753C16.4729 4.30753 16.5507 4.32329 16.6252 4.35481C16.6988 4.38633 16.7651 4.4303 16.8216 4.48836C16.8789 4.5456 16.9223 4.61278 16.9534 4.68744C16.9844 4.76292 17 4.84172 17 4.92301ZM3.03548 3.69288V12.3079C3.03548 12.3892 3.01993 12.468 2.98883 12.5427C2.95855 12.6182 2.91436 12.6854 2.85789 12.7426C2.8006 12.8007 2.73512 12.8446 2.66065 12.8761C2.58617 12.9077 2.50842 12.9226 2.42822 12.9226C2.34802 12.9226 2.27027 12.9077 2.19579 12.8761C2.12132 12.8446 2.05584 12.8007 1.99856 12.7426C1.94209 12.6854 1.89789 12.6182 1.86761 12.5427C1.83651 12.468 1.82096 12.3892 1.82096 12.3079V3.69288C1.82096 3.61076 1.83651 3.53279 1.86761 3.45731C1.89789 3.38182 1.94209 3.31546 1.99856 3.2574C2.05584 3.19934 2.12132 3.15537 2.19579 3.12385C2.27027 3.09316 2.34802 3.0774 2.42822 3.0774C2.50842 3.0774 2.58617 3.09316 2.66065 3.12385C2.73512 3.15537 2.8006 3.19934 2.85789 3.2574C2.91436 3.31546 2.95855 3.38182 2.98883 3.45731C3.01993 3.53279 3.03548 3.61076 3.03548 3.69288ZM1.2137 4.92301V11.077C1.2137 11.1583 1.19815 11.2371 1.16787 11.3126C1.13677 11.388 1.09339 11.4544 1.03611 11.5116C0.978818 11.5697 0.913345 11.6145 0.83887 11.6452C0.764394 11.6767 0.687464 11.6925 0.606441 11.6925C0.526237 11.6925 0.448488 11.6767 0.374831 11.6452C0.300356 11.6145 0.234065 11.5697 0.177595 11.5116C0.120306 11.4544 0.0769304 11.388 0.0458309 11.3126C0.0147313 11.2371 0 11.1583 0 11.077V4.92301C0 4.84172 0.0147313 4.76292 0.0458309 4.68744C0.0769304 4.61278 0.120306 4.5456 0.177595 4.48836C0.234065 4.4303 0.300356 4.38633 0.374831 4.35481C0.448488 4.32329 0.526237 4.30753 0.606441 4.30753C0.687464 4.30753 0.764394 4.32329 0.83887 4.35481C0.913345 4.38633 0.978818 4.4303 1.03611 4.48836C1.09339 4.5456 1.13677 4.61278 1.16787 4.68744C1.19815 4.76292 1.2137 4.84172 1.2137 4.92301Z" fill="white" fill-opacity="0.9"/>
</svg>
