<svg width="17" height="15" viewBox="0 0 17 15" fill="none" xmlns="http://www.w3.org/2000/svg">
<path d="M12.0761 4.27152C11.8872 3.98441 11.5193 3.90951 11.2488 4.12172C10.9905 4.33394 10.9223 4.74214 11.1124 5.04549C11.5741 5.75703 11.8179 6.60589 11.8179 7.49969C11.8179 8.3935 11.5741 9.24111 11.1124 9.95515C10.9223 10.2423 10.9771 10.6667 11.2488 10.8789C11.3572 10.9688 11.478 11 11.5875 11C11.7642 11 11.9543 10.9089 12.0616 10.7266C12.6732 9.78788 12.9997 8.66688 12.9997 7.49969C13.012 6.33376 12.6866 5.22649 12.0761 4.27152Z" fill="white" fill-opacity="0.9"/>
<mask id="mask0_0_1" style="mask-type:luminance" maskUnits="userSpaceOnUse" x="13" y="0" width="5" height="14">
<path d="M13.0811 0.987915H17.0003V13.3146H13.0811V0.987915Z" fill="white"/>
</mask>
<g mask="url(#mask0_0_1)">
<path d="M14.7875 1.36583C14.5219 1.02877 14.0433 0.976243 13.7077 1.2418C13.3707 1.50736 13.3196 1.98596 13.5837 2.32301C14.6985 3.70334 15.2836 5.3682 15.2836 7.13957C15.2836 8.91095 14.6985 10.5743 13.5837 11.9561C13.3196 12.2932 13.3707 12.7718 13.7077 13.0359C13.8493 13.1424 14.0258 13.2139 14.1849 13.2139C14.4169 13.2139 14.6285 13.1074 14.7875 12.9308C16.0992 11.301 16.8244 9.24655 16.8244 7.13957C16.8244 5.03114 16.0992 3.01172 14.7875 1.36583Z" fill="white" fill-opacity="0.9"/>
</g>
<mask id="mask1_0_1" style="mask-type:luminance" maskUnits="userSpaceOnUse" x="0" y="0" width="10" height="15">
<path d="M0 0H9.941V14.2877H0V0Z" fill="white"/>
</mask>
<g mask="url(#mask1_0_1)">
<path d="M9.56308 0.055171C9.36756 -0.0338353 9.15599 -0.0163259 8.97798 0.107699L3.66531 4.12758H0.54863C0.246591 4.12758 0 4.37563 0 4.67767V9.63577C0 9.93635 0.246591 10.1844 0.54863 10.1844H3.66531L8.99549 14.2057C9.08595 14.2758 9.20852 14.3123 9.33108 14.3123C9.42155 14.3123 9.49159 14.2933 9.57913 14.2583C9.77466 14.1693 9.88117 13.9752 9.88117 13.7636V0.549813C9.88117 0.338241 9.75715 0.142718 9.56308 0.055171Z" fill="white" fill-opacity="0.9"/>
</g>
</svg>
