<svg width="16" height="18" viewBox="0 0 16 18" fill="none" xmlns="http://www.w3.org/2000/svg">
<path d="M0 16.1069C0 16.2244 0.0116537 16.3404 0.0344948 16.4556C0.0573361 16.5712 0.0913647 16.6831 0.136115 16.7912C0.181331 16.8998 0.236336 17.0028 0.301597 17.1007C0.366857 17.1986 0.440975 17.2886 0.523949 17.372C0.606923 17.455 0.697355 17.5291 0.795246 17.5944C0.892671 17.6596 0.996155 17.7146 1.1043 17.7599C1.21291 17.8046 1.32479 17.8386 1.43993 17.8615C1.55553 17.8843 1.6716 17.896 1.78907 17.896H10.1387C10.2562 17.896 10.3722 17.8843 10.4874 17.8615C10.6025 17.8386 10.7144 17.8046 10.823 17.7599C10.9316 17.7146 11.0346 17.6596 11.1325 17.5944C11.2299 17.5291 11.3204 17.455 11.4038 17.372C11.4868 17.2886 11.5609 17.1986 11.6262 17.1007C11.6914 17.0028 11.7464 16.8998 11.7916 16.7912C11.8364 16.6831 11.8704 16.5712 11.8933 16.4556C11.9161 16.3404 11.9278 16.2244 11.9278 16.1069V15.5102H13.7168C13.8343 15.5102 13.9504 15.499 14.066 15.4757C14.1811 15.4529 14.293 15.4193 14.4016 15.3741C14.5097 15.3294 14.6132 15.2739 14.7107 15.2086C14.8085 15.1434 14.899 15.0693 14.9819 14.9863C15.0649 14.9033 15.139 14.8129 15.2043 14.715C15.2696 14.6176 15.3246 14.5145 15.3698 14.4059C15.4145 14.2973 15.4486 14.1854 15.4714 14.0703C15.4942 13.9552 15.5059 13.8386 15.5059 13.7212V1.7934C15.5059 1.67593 15.4942 1.55986 15.4714 1.44473C15.4486 1.32912 15.4145 1.21725 15.3698 1.1091C15.3246 1.00049 15.2696 0.89747 15.2043 0.799579C15.139 0.701689 15.0649 0.611722 14.9819 0.528282C14.899 0.445308 14.8085 0.371191 14.7107 0.30593C14.6132 0.24067 14.5097 0.185665 14.4016 0.140448C14.293 0.0956982 14.1811 0.0616695 14.066 0.0388283C13.9504 0.0159871 13.8343 0.0043335 13.7168 0.0043335H5.36721C5.24974 0.0043335 5.13367 0.0159871 5.01853 0.0388283C4.90293 0.0616695 4.79105 0.0956982 4.68291 0.140448C4.5743 0.185665 4.47128 0.24067 4.37339 0.30593C4.27596 0.371191 4.18553 0.445308 4.10209 0.528282C4.01911 0.611722 3.945 0.701689 3.87974 0.799579C3.81448 0.89747 3.75947 1.00049 3.71426 1.1091C3.66951 1.21725 3.63548 1.32912 3.61264 1.44473C3.58979 1.55986 3.57814 1.67593 3.57814 1.7934V2.39007H1.78907C1.6716 2.39007 1.55553 2.40126 1.43993 2.42457C1.32479 2.44741 1.21291 2.48097 1.1043 2.52619C0.996155 2.57094 0.892671 2.62641 0.795246 2.69167C0.697355 2.75693 0.606923 2.83105 0.523949 2.91402C0.440975 2.99699 0.366857 3.08743 0.301597 3.18532C0.236336 3.28274 0.181331 3.38576 0.136115 3.49437C0.0913647 3.60298 0.0573361 3.71486 0.0344948 3.83C0.0116537 3.94514 0 4.06167 0 4.17914V16.1069ZM4.77101 1.7934C4.77101 1.75425 4.77474 1.71556 4.78266 1.67733C4.79012 1.63864 4.80131 1.60135 4.81623 1.56546C4.83161 1.5291 4.84979 1.4946 4.8717 1.46244C4.89314 1.42981 4.91785 1.39951 4.94581 1.37201C4.97332 1.34404 5.00362 1.31933 5.03625 1.29789C5.06888 1.27598 5.10291 1.2578 5.13927 1.24242C5.17516 1.2275 5.21245 1.21631 5.25114 1.20886C5.28936 1.20093 5.32805 1.1972 5.36721 1.1972H13.7168C13.756 1.1972 13.7947 1.20093 13.8329 1.20886C13.8716 1.21631 13.9089 1.2275 13.9448 1.24242C13.9811 1.2578 14.0156 1.27598 14.0483 1.29789C14.0804 1.31933 14.1107 1.34404 14.1387 1.37201C14.1662 1.39951 14.1909 1.42981 14.2128 1.46244C14.2342 1.4946 14.2529 1.5291 14.2678 1.56546C14.2827 1.60135 14.2939 1.63864 14.3018 1.67733C14.3093 1.71556 14.313 1.75425 14.313 1.7934V13.7212C14.313 13.7603 14.3093 13.799 14.3018 13.8377C14.2939 13.8759 14.2827 13.9132 14.2678 13.9496C14.2529 13.9855 14.2342 14.02 14.2128 14.0526C14.1909 14.0852 14.1662 14.1151 14.1387 14.143C14.1107 14.1705 14.0804 14.1952 14.0483 14.2171C14.0156 14.239 13.9811 14.2572 13.9448 14.2721C13.9089 14.2871 13.8716 14.2982 13.8329 14.3062C13.7947 14.3136 13.756 14.3174 13.7168 14.3174H11.9278V4.17914C11.9278 4.06167 11.9161 3.94514 11.8933 3.83C11.8704 3.71486 11.8364 3.60298 11.7916 3.49437C11.7464 3.38576 11.6914 3.28274 11.6262 3.18532C11.5609 3.08743 11.4868 2.99699 11.4038 2.91402C11.3204 2.83105 11.2299 2.75693 11.1325 2.69167C11.0346 2.62641 10.9316 2.57094 10.823 2.52619C10.7144 2.48097 10.6025 2.44741 10.4874 2.42457C10.3722 2.40126 10.2562 2.39007 10.1387 2.39007H4.77101V1.7934ZM1.19287 4.17914C1.19287 4.13999 1.1966 4.10129 1.20406 4.0626C1.21198 4.02438 1.22317 3.98709 1.23809 3.95073C1.253 3.91484 1.27165 3.88034 1.29309 3.84771C1.315 3.81508 1.3397 3.78525 1.36721 3.75728C1.39518 3.72978 1.42548 3.70507 1.45764 3.68316C1.49027 3.66125 1.52477 3.64307 1.56112 3.62816C1.59702 3.61324 1.63431 3.60205 1.673 3.59413C1.71122 3.58667 1.74991 3.58294 1.78907 3.58294H10.1387C10.1778 3.58294 10.2165 3.58667 10.2548 3.59413C10.2934 3.60205 10.3307 3.61324 10.3666 3.62816C10.403 3.64307 10.437 3.66125 10.4697 3.68316C10.5023 3.70507 10.5326 3.72978 10.5601 3.75728C10.5881 3.78525 10.6128 3.81508 10.6342 3.84771C10.6561 3.88034 10.6743 3.91484 10.6897 3.95073C10.7046 3.98709 10.7158 4.02438 10.7232 4.0626C10.7312 4.10129 10.7349 4.13999 10.7349 4.17914V16.1069C10.7349 16.1461 10.7312 16.1847 10.7232 16.223C10.7158 16.2617 10.7046 16.299 10.6897 16.3348C10.6743 16.3712 10.6561 16.4057 10.6342 16.4379C10.6128 16.4705 10.5881 16.5008 10.5601 16.5283C10.5326 16.5563 10.5023 16.581 10.4697 16.6024C10.437 16.6243 10.403 16.6425 10.3666 16.6579C10.3307 16.6728 10.2934 16.684 10.2548 16.6914C10.2165 16.6994 10.1778 16.7031 10.1387 16.7031H1.78907C1.74991 16.7031 1.71122 16.6994 1.673 16.6914C1.63431 16.684 1.59702 16.6728 1.56112 16.6579C1.52477 16.6425 1.49027 16.6243 1.45764 16.6024C1.42548 16.581 1.39518 16.5563 1.36721 16.5283C1.3397 16.5008 1.315 16.4705 1.29309 16.4379C1.27165 16.4057 1.253 16.3712 1.23809 16.3348C1.22317 16.299 1.21198 16.2617 1.20406 16.223C1.1966 16.1847 1.19287 16.1461 1.19287 16.1069V4.17914Z" fill="currentColor"/>
</svg>