<svg width="14" height="10" viewBox="0 0 14 10" fill="none" xmlns="http://www.w3.org/2000/svg">
<path d="M9.8 5C8.44594 5 7.35 3.8817 7.35 2.5C7.35 1.1183 8.44594 0 9.8 0C11.1541 0 12.25 1.1183 12.25 2.5C12.25 3.8817 11.1541 5 9.8 5ZM8.12 5.71429H8.30156C8.75656 5.9375 9.26188 6.07143 9.8 6.07143C10.3381 6.07143 10.8413 5.9375 11.2984 5.71429H11.48C12.8713 5.71429 14 6.86607 14 8.28572V8.92857C14 9.52009 13.5297 10 12.95 10H6.65C6.07031 10 5.6 9.52009 5.6 8.92857V8.28572C5.6 6.86607 6.72875 5.71429 8.12 5.71429ZM3.5 5C2.34062 5 1.4 4.04018 1.4 2.85714C1.4 1.67411 2.34062 0.714286 3.5 0.714286C4.65938 0.714286 5.6 1.67411 5.6 2.85714C5.6 4.04018 4.65938 5 3.5 5ZM2.45 5.71429H2.53312C2.83719 5.82143 3.15875 5.89286 3.5 5.89286C3.84125 5.89286 4.16281 5.82143 4.46688 5.71429H4.55C4.99625 5.71429 5.4075 5.84598 5.76844 6.05804C5.23469 6.64509 4.9 7.42411 4.9 8.28572V9.14286C4.9 9.19197 4.91094 9.23884 4.91313 9.28571H1.05C0.470313 9.28571 0 8.8058 0 8.21429C0 6.83259 1.09594 5.71429 2.45 5.71429Z" fill="#A6A6A6"/>
</svg>

