<svg width="6" height="17" viewBox="0 0 6 17" fill="none" xmlns="http://www.w3.org/2000/svg">
<path d="M5.92002 8.43565L0.465805 16.2075C0.440468 16.2437 0.410388 16.2723 0.377282 16.2918C0.344177 16.3114 0.308695 16.3214 0.272862 16.3214C0.23703 16.3214 0.201548 16.3114 0.168443 16.2918C0.135337 16.2723 0.105257 16.2437 0.0799196 16.2075C0.054582 16.1714 0.0344834 16.1286 0.0207708 16.0814C0.00705819 16.0342 0 15.9837 0 15.9326C0 15.8816 0.00705819 15.831 0.0207708 15.7838C0.0344834 15.7367 0.054582 15.6938 0.0799196 15.6577L5.34119 8.16071L0.0799196 0.663742C0.028748 0.590826 0 0.49193 0 0.388811C0 0.285692 0.028748 0.186796 0.0799196 0.11388C0.131091 0.0409637 0.200495 0 0.272862 0C0.34523 0 0.414634 0.0409637 0.465805 0.11388L5.92002 7.88578C5.94537 7.92187 5.96549 7.96473 5.97921 8.0119C5.99294 8.05908 6 8.10965 6 8.16071C6 8.21178 5.99294 8.26235 5.97921 8.30952C5.96549 8.3567 5.94537 8.39956 5.92002 8.43565Z" fill="currentColor"/>
</svg>
