<svg width="25" height="24" viewBox="0 0 25 24" fill="none" xmlns="http://www.w3.org/2000/svg">
<path d="M24.7626 20.5544L14.0609 0.933702C13.9029 0.645782 13.6845 0.418092 13.4054 0.250972C13.127 0.0837062 12.8249 0 12.4998 0C12.1747 0 11.8726 0.0838526 11.594 0.250972C11.3154 0.418092 11.097 0.645782 10.9391 0.933702L0.237145 20.5544C-0.0880647 21.14 -0.0787911 21.7252 0.264965 22.3105C0.423055 22.5798 0.639032 22.7936 0.913041 22.9513C1.18725 23.1092 1.48215 23.1884 1.79803 23.1884H23.2019C23.5181 23.1884 23.8129 23.1092 24.087 22.9513C24.3613 22.7936 24.5769 22.5798 24.735 22.3105C25.0788 21.7249 25.0882 21.14 24.7626 20.5544ZM14.284 19.1609C14.284 19.2908 14.2395 19.3999 14.1517 19.4881C14.0635 19.5765 13.959 19.6203 13.838 19.6203H11.1625C11.0418 19.6203 10.9372 19.5765 10.849 19.4881C10.7607 19.3999 10.7166 19.2908 10.7166 19.1609V16.5131C10.7166 16.3832 10.7608 16.2741 10.849 16.1859C10.9372 16.0975 11.0416 16.0536 11.1625 16.0536H13.8378C13.9588 16.0536 14.0633 16.0975 14.1515 16.1859C14.2395 16.2741 14.2838 16.3832 14.2838 16.5131V19.1609H14.284ZM14.2563 13.9493C14.2466 14.0422 14.1978 14.1187 14.1098 14.1792C14.0214 14.2396 13.9123 14.2697 13.7823 14.2697H11.2042C11.0742 14.2697 10.9628 14.2394 10.8699 14.1792C10.7768 14.1185 10.7304 14.0422 10.7304 13.949L10.4936 7.581C10.4936 7.45082 10.5401 7.35331 10.633 7.28834C10.7537 7.18619 10.8652 7.13508 10.9675 7.13508H14.0331C14.1355 7.13508 14.2469 7.18599 14.3676 7.28834C14.4605 7.35331 14.5068 7.4416 14.5068 7.55308L14.2563 13.9493Z" fill="#E02E2E"/>
</svg>